<?xml version="1.0" encoding="utf-8"?>
<!-- Generator: Adobe Illustrator 23.0.2, SVG Export Plug-In . SVG Version: 6.00 Build 0)  -->
<svg version="1.1" id="Layer_1" xmlns="http://www.w3.org/2000/svg" xmlns:xlink="http://www.w3.org/1999/xlink" x="0px" y="0px"
	 viewBox="0 0 146 54" style="enable-background:new 0 0 146 54;" xml:space="preserve">
<g>
	<path d="M52.17,17.44l-3.02,10.53c1.7-1.08,3.02-1.62,3.97-1.62c1.18,0,2.09,0.5,2.72,1.51c0.63,1.01,0.95,2.19,0.95,3.56
		c0,2.59-0.94,4.96-2.83,7.13s-3.76,3.25-5.62,3.25c-1.15,0-2.09-0.34-2.82-1.02c-0.73-0.68-1.1-1.64-1.1-2.9
		c0-1.18,0.47-3.42,1.42-6.73l3.22-11.05c0.13-0.41,0.19-0.74,0.19-0.98c0-0.66-0.56-1.01-1.67-1.07c-0.28-0.01-0.42-0.12-0.42-0.33
		c0-0.19,0.12-0.28,0.35-0.28l2.81,0.07C50.89,17.51,51.5,17.49,52.17,17.44z M49.04,40.94c1.39,0,2.62-1.01,3.69-3.02
		s1.6-4.34,1.6-6.97c0-1.23-0.16-2.15-0.48-2.76c-0.32-0.61-0.81-0.91-1.45-0.91c-0.83,0-1.7,0.48-2.6,1.44
		c-0.9,0.96-1.61,2.41-2.14,4.35s-0.8,3.42-0.8,4.43c0,1.15,0.18,2.01,0.54,2.58C47.77,40.66,48.31,40.94,49.04,40.94z"/>
	<path d="M61.63,40.36c0,0.2,0.04,0.35,0.13,0.45s0.21,0.15,0.38,0.15c0.36,0,0.87-0.21,1.51-0.62s1.26-0.92,1.85-1.53
		c0.26-0.27,0.46-0.4,0.62-0.4c0.21,0,0.32,0.09,0.32,0.28c0,0.41-0.59,1.04-1.78,1.89c-1.18,0.85-2.28,1.27-3.29,1.27
		c-0.64,0-1.13-0.13-1.47-0.4c-0.33-0.26-0.5-0.57-0.5-0.92c0-0.53,0.65-2.37,1.95-5.54c1.65-3.98,2.48-6.25,2.48-6.79
		c0-0.21-0.04-0.37-0.11-0.47c-0.08-0.1-0.2-0.15-0.36-0.15c-0.5,0-1.31,0.54-2.43,1.62c-0.43,0.42-0.74,0.63-0.92,0.63
		c-0.16,0-0.25-0.09-0.25-0.28c0-0.3,0.62-0.93,1.85-1.87s2.33-1.42,3.29-1.42c0.4,0,0.74,0.15,1.03,0.45
		c0.29,0.3,0.43,0.62,0.43,0.96c0,0.42-0.07,0.84-0.22,1.25s-1.02,2.52-2.63,6.33C62.25,38.47,61.63,40.16,61.63,40.36z
		 M67.32,17.83c0.38,0,0.7,0.14,0.97,0.41c0.27,0.27,0.4,0.6,0.4,0.97c0,0.39-0.13,0.72-0.4,0.99s-0.59,0.41-0.97,0.41
		c-0.39,0-0.71-0.14-0.98-0.41s-0.4-0.6-0.4-0.99s0.14-0.72,0.41-0.98S66.95,17.83,67.32,17.83z"/>
	<path d="M76.67,26.46c1.56,0,2.78,0.6,3.67,1.79c0.89,1.19,1.34,2.6,1.34,4.23c0,2.28-0.8,4.4-2.41,6.38s-3.52,2.96-5.75,2.96
		c-1.64,0-2.82-0.6-3.55-1.81c-0.73-1.2-1.09-2.47-1.09-3.79c0-1.74,0.45-3.43,1.35-5.07c0.9-1.64,1.95-2.83,3.15-3.57
		C74.58,26.83,75.68,26.46,76.67,26.46z M77.01,27.2c-0.66,0-1.38,0.38-2.17,1.14s-1.57,2.12-2.34,4.1
		c-0.77,1.97-1.15,3.82-1.15,5.55c0,0.84,0.19,1.56,0.58,2.17s0.91,0.91,1.56,0.91c0.74,0,1.54-0.44,2.4-1.31s1.66-2.23,2.38-4.06
		s1.09-3.57,1.09-5.22c0-1.1-0.2-1.92-0.59-2.46C78.38,27.47,77.79,27.2,77.01,27.2z"/>
	<path d="M90.35,18.32c0.3,0.73,0.87,1.88,1.69,3.45c0.82,1.58,1.63,3.18,2.44,4.8c0.8,1.62,1.71,3.33,2.72,5.12
		c0.81,1.42,1.27,2.25,1.37,2.5c2.94-6.57,5.16-11.87,6.67-15.87c2.81,0,5.41-0.07,7.79-0.21c0.22-0.01,0.39-0.02,0.49-0.02
		c0.48,0,0.72,0.19,0.72,0.56c0,0.33-0.19,0.49-0.56,0.49c-1.34,0-2.21,0.45-2.63,1.36s-0.62,3.12-0.62,6.64l-0.02,8.61
		c0,1.76,0.23,2.99,0.69,3.69s1.22,1.07,2.26,1.11c0.5,0.01,0.76,0.18,0.76,0.51c0,0.18-0.11,0.32-0.32,0.44l-4.93-0.04
		c-1.51,0-3.57,0.06-6.2,0.18c-0.22-0.15-0.33-0.32-0.33-0.49c0-0.27,0.3-0.45,0.91-0.54c0.62-0.11,1.06-0.26,1.34-0.46
		c0.27-0.2,0.48-0.57,0.62-1.11s0.21-1.33,0.21-2.38l0.07-7.86c0-4.02,0.01-6.34,0.02-6.95c-3.18,7.41-5.15,12.13-5.91,14.19
		l-1.77,4.76c-0.2,0.5-0.4,0.76-0.6,0.76c-0.21,0-0.46-0.31-0.76-0.93c-0.86-1.8-3.91-7.76-9.17-17.88
		c-0.06,2.91-0.09,6.83-0.09,11.77c0,2.6,0.15,4.25,0.44,4.94s1.11,1.09,2.46,1.21c0.45,0.05,0.67,0.21,0.67,0.49
		c0,0.3-0.18,0.46-0.54,0.46c-0.13,0-0.27-0.01-0.42-0.02c-1.41-0.1-2.41-0.16-3.02-0.16c-1.66,0-2.92,0.06-3.78,0.18
		c-0.16,0.02-0.29,0.04-0.37,0.04c-0.41,0-0.62-0.17-0.62-0.51c0-0.16,0.05-0.28,0.15-0.34s0.37-0.14,0.8-0.24
		c1.12-0.21,1.86-0.62,2.21-1.21s0.52-1.58,0.52-2.94l0.09-10.05c0-2.29-0.06-3.8-0.18-4.54c-0.12-0.74-0.4-1.31-0.86-1.71
		c-0.46-0.4-1.2-0.7-2.23-0.9c-0.39-0.08-0.58-0.28-0.58-0.58c0-0.33,0.21-0.49,0.63-0.49c0.09,0,0.22,0.01,0.39,0.02
		C84.14,18.27,86.61,18.32,90.35,18.32z"/>
	<path d="M135.74,41.66c-2.93-0.15-7.49-0.23-13.68-0.23c-2.16,0-3.91,0.06-5.26,0.19c-0.33,0.02-0.57,0.04-0.72,0.04
		c-0.45,0-0.67-0.18-0.67-0.53c0-0.16,0.06-0.28,0.18-0.34s0.4-0.13,0.86-0.2c0.73-0.11,1.28-0.32,1.67-0.64s0.66-0.8,0.82-1.44
		s0.25-2.27,0.27-4.9s0.04-5.74,0.04-9.36c0-1.44-0.11-2.49-0.32-3.14c-0.21-0.65-0.51-1.13-0.91-1.43s-0.95-0.47-1.66-0.5
		c-0.5-0.02-0.76-0.21-0.76-0.56s0.29-0.53,0.86-0.53l5.84,0.18c0.9,0,2.16-0.05,3.78-0.14c0.59-0.03,0.98-0.04,1.2-0.04
		c0.49,0,0.74,0.17,0.74,0.51c0,0.19-0.08,0.32-0.24,0.4s-0.55,0.16-1.19,0.26c-0.79,0.11-1.34,0.31-1.66,0.6s-0.54,0.8-0.65,1.53
		c-0.11,0.73-0.17,2.36-0.17,4.89v10.69c0.01,1.64,0.16,2.62,0.44,2.93c0.28,0.31,0.81,0.47,1.6,0.47c1.92,0,3.35-0.15,4.29-0.45
		s1.83-0.84,2.68-1.63c0.85-0.79,1.76-2.1,2.73-3.96c0.2-0.38,0.4-0.56,0.61-0.56c0.31,0,0.47,0.17,0.47,0.51
		C136.95,35.04,136.54,37.5,135.74,41.66z"/>
</g>
<path d="M39.18,37.77l-8.89-14.3V12.01h0.61c1.01,0,1.82-0.81,1.82-1.82V8.97c0-1.01-0.81-1.82-1.82-1.82H15.11
	c-1.01,0-1.82,0.81-1.82,1.82v1.21c0,1.01,0.81,1.82,1.82,1.82h0.61v11.46l-8.89,14.3C4.61,41.34,7.17,46,11.39,46h23.23
	C38.85,46,41.4,41.33,39.18,37.77z M16.47,31.43l3.66-5.89c0.28-0.39,0.44-0.88,0.44-1.4V12.01h4.86v12.14c0,0.52,0.17,1,0.44,1.4
	l3.66,5.89H16.47z"/>
</svg>
